<svg width="151" height="45" viewBox="0 0 151 45" fill="none" xmlns="http://www.w3.org/2000/svg">
<path d="M51.0403 18.436C52.3603 18.436 53.5183 18.694 54.5143 19.21C55.5223 19.726 56.2963 20.464 56.8363 21.424C57.3883 22.372 57.6643 23.476 57.6643 24.736C57.6643 25.996 57.3883 27.1 56.8363 28.048C56.2963 28.984 55.5223 29.71 54.5143 30.226C53.5183 30.742 52.3603 31 51.0403 31H46.6483V18.436H51.0403ZM50.9503 28.858C52.2703 28.858 53.2903 28.498 54.0103 27.778C54.7303 27.058 55.0903 26.044 55.0903 24.736C55.0903 23.428 54.7303 22.408 54.0103 21.676C53.2903 20.932 52.2703 20.56 50.9503 20.56H49.1683V28.858H50.9503ZM58.9026 25.978C58.9026 24.97 59.1006 24.076 59.4966 23.296C59.9046 22.516 60.4506 21.916 61.1346 21.496C61.8306 21.076 62.6046 20.866 63.4566 20.866C64.2006 20.866 64.8486 21.016 65.4006 21.316C65.9646 21.616 66.4146 21.994 66.7506 22.45V21.028H69.2886V31H66.7506V29.542C66.4266 30.01 65.9766 30.4 65.4006 30.712C64.8366 31.012 64.1826 31.162 63.4386 31.162C62.5986 31.162 61.8306 30.946 61.1346 30.514C60.4506 30.082 59.9046 29.476 59.4966 28.696C59.1006 27.904 58.9026 26.998 58.9026 25.978ZM66.7506 26.014C66.7506 25.402 66.6306 24.88 66.3906 24.448C66.1506 24.004 65.8266 23.668 65.4186 23.44C65.0106 23.2 64.5726 23.08 64.1046 23.08C63.6366 23.08 63.2046 23.194 62.8086 23.422C62.4126 23.65 62.0886 23.986 61.8366 24.43C61.5966 24.862 61.4766 25.378 61.4766 25.978C61.4766 26.578 61.5966 27.106 61.8366 27.562C62.0886 28.006 62.4126 28.348 62.8086 28.588C63.2166 28.828 63.6486 28.948 64.1046 28.948C64.5726 28.948 65.0106 28.834 65.4186 28.606C65.8266 28.366 66.1506 28.03 66.3906 27.598C66.6306 27.154 66.7506 26.626 66.7506 26.014ZM75.5658 31.162C74.7498 31.162 74.0178 31.018 73.3698 30.73C72.7218 30.43 72.2058 30.028 71.8218 29.524C71.4498 29.02 71.2458 28.462 71.2098 27.85H73.7478C73.7958 28.234 73.9818 28.552 74.3058 28.804C74.6418 29.056 75.0558 29.182 75.5478 29.182C76.0278 29.182 76.3998 29.086 76.6638 28.894C76.9398 28.702 77.0778 28.456 77.0778 28.156C77.0778 27.832 76.9098 27.592 76.5738 27.436C76.2498 27.268 75.7278 27.088 75.0078 26.896C74.2638 26.716 73.6518 26.53 73.1718 26.338C72.7038 26.146 72.2958 25.852 71.9478 25.456C71.6118 25.06 71.4438 24.526 71.4438 23.854C71.4438 23.302 71.5998 22.798 71.9118 22.342C72.2358 21.886 72.6918 21.526 73.2798 21.262C73.8798 20.998 74.5818 20.866 75.3858 20.866C76.5738 20.866 77.5218 21.166 78.2298 21.766C78.9378 22.354 79.3278 23.152 79.3998 24.16H76.9878C76.9518 23.764 76.7838 23.452 76.4838 23.224C76.1958 22.984 75.8058 22.864 75.3138 22.864C74.8578 22.864 74.5038 22.948 74.2518 23.116C74.0118 23.284 73.8918 23.518 73.8918 23.818C73.8918 24.154 74.0598 24.412 74.3958 24.592C74.7318 24.76 75.2538 24.934 75.9618 25.114C76.6818 25.294 77.2758 25.48 77.7438 25.672C78.2118 25.864 78.6138 26.164 78.9498 26.572C79.2978 26.968 79.4778 27.496 79.4898 28.156C79.4898 28.732 79.3278 29.248 79.0038 29.704C78.6918 30.16 78.2358 30.52 77.6358 30.784C77.0478 31.036 76.3578 31.162 75.5658 31.162ZM87.1744 20.884C87.9304 20.884 88.6024 21.052 89.1904 21.388C89.7784 21.712 90.2344 22.198 90.5584 22.846C90.8944 23.482 91.0624 24.25 91.0624 25.15V31H88.5424V25.492C88.5424 24.7 88.3444 24.094 87.9484 23.674C87.5524 23.242 87.0124 23.026 86.3284 23.026C85.6324 23.026 85.0804 23.242 84.6724 23.674C84.2764 24.094 84.0784 24.7 84.0784 25.492V31H81.5584V17.68H84.0784V22.27C84.4024 21.838 84.8344 21.502 85.3744 21.262C85.9144 21.01 86.5144 20.884 87.1744 20.884Z" fill="white"/>
<path d="M97.7968 31.126C96.9208 31.126 96.1288 30.976 95.4208 30.676C94.7248 30.376 94.1728 29.944 93.7648 29.38C93.3568 28.816 93.1468 28.15 93.1348 27.382H95.8348C95.8708 27.898 96.0508 28.306 96.3748 28.606C96.7108 28.906 97.1668 29.056 97.7428 29.056C98.3308 29.056 98.7928 28.918 99.1288 28.642C99.4648 28.354 99.6328 27.982 99.6328 27.526C99.6328 27.154 99.5188 26.848 99.2908 26.608C99.0628 26.368 98.7748 26.182 98.4268 26.05C98.0908 25.906 97.6228 25.75 97.0228 25.582C96.2068 25.342 95.5408 25.108 95.0248 24.88C94.5208 24.64 94.0828 24.286 93.7108 23.818C93.3508 23.338 93.1708 22.702 93.1708 21.91C93.1708 21.166 93.3568 20.518 93.7288 19.966C94.1008 19.414 94.6228 18.994 95.2948 18.706C95.9668 18.406 96.7348 18.256 97.5988 18.256C98.8948 18.256 99.9448 18.574 100.749 19.21C101.565 19.834 102.015 20.71 102.099 21.838H99.3268C99.3028 21.406 99.1168 21.052 98.7688 20.776C98.4328 20.488 97.9828 20.344 97.4188 20.344C96.9268 20.344 96.5308 20.47 96.2308 20.722C95.9428 20.974 95.7988 21.34 95.7988 21.82C95.7988 22.156 95.9068 22.438 96.1228 22.666C96.3508 22.882 96.6268 23.062 96.9508 23.206C97.2868 23.338 97.7548 23.494 98.3548 23.674C99.1708 23.914 99.8368 24.154 100.353 24.394C100.869 24.634 101.313 24.994 101.685 25.474C102.057 25.954 102.243 26.584 102.243 27.364C102.243 28.036 102.069 28.66 101.721 29.236C101.373 29.812 100.863 30.274 100.191 30.622C99.5188 30.958 98.7208 31.126 97.7968 31.126ZM106.948 22.468C107.272 22.012 107.716 21.634 108.28 21.334C108.856 21.022 109.51 20.866 110.242 20.866C111.094 20.866 111.862 21.076 112.546 21.496C113.242 21.916 113.788 22.516 114.184 23.296C114.592 24.064 114.796 24.958 114.796 25.978C114.796 26.998 114.592 27.904 114.184 28.696C113.788 29.476 113.242 30.082 112.546 30.514C111.862 30.946 111.094 31.162 110.242 31.162C109.51 31.162 108.862 31.012 108.298 30.712C107.746 30.412 107.296 30.034 106.948 29.578V35.752H104.428V21.028H106.948V22.468ZM112.222 25.978C112.222 25.378 112.096 24.862 111.844 24.43C111.604 23.986 111.28 23.65 110.872 23.422C110.476 23.194 110.044 23.08 109.576 23.08C109.12 23.08 108.688 23.2 108.28 23.44C107.884 23.668 107.56 24.004 107.308 24.448C107.068 24.892 106.948 25.414 106.948 26.014C106.948 26.614 107.068 27.136 107.308 27.58C107.56 28.024 107.884 28.366 108.28 28.606C108.688 28.834 109.12 28.948 109.576 28.948C110.044 28.948 110.476 28.828 110.872 28.588C111.28 28.348 111.604 28.006 111.844 27.562C112.096 27.118 112.222 26.59 112.222 25.978ZM115.979 25.978C115.979 24.97 116.177 24.076 116.573 23.296C116.981 22.516 117.527 21.916 118.211 21.496C118.907 21.076 119.681 20.866 120.533 20.866C121.277 20.866 121.925 21.016 122.477 21.316C123.041 21.616 123.491 21.994 123.827 22.45V21.028H126.365V31H123.827V29.542C123.503 30.01 123.053 30.4 122.477 30.712C121.913 31.012 121.259 31.162 120.515 31.162C119.675 31.162 118.907 30.946 118.211 30.514C117.527 30.082 116.981 29.476 116.573 28.696C116.177 27.904 115.979 26.998 115.979 25.978ZM123.827 26.014C123.827 25.402 123.707 24.88 123.467 24.448C123.227 24.004 122.903 23.668 122.495 23.44C122.087 23.2 121.649 23.08 121.181 23.08C120.713 23.08 120.281 23.194 119.885 23.422C119.489 23.65 119.165 23.986 118.913 24.43C118.673 24.862 118.553 25.378 118.553 25.978C118.553 26.578 118.673 27.106 118.913 27.562C119.165 28.006 119.489 28.348 119.885 28.588C120.293 28.828 120.725 28.948 121.181 28.948C121.649 28.948 122.087 28.834 122.495 28.606C122.903 28.366 123.227 28.03 123.467 27.598C123.707 27.154 123.827 26.626 123.827 26.014ZM128.178 26.014C128.178 24.982 128.388 24.082 128.808 23.314C129.228 22.534 129.81 21.934 130.554 21.514C131.298 21.082 132.15 20.866 133.11 20.866C134.346 20.866 135.366 21.178 136.17 21.802C136.986 22.414 137.532 23.278 137.808 24.394H135.09C134.946 23.962 134.7 23.626 134.352 23.386C134.016 23.134 133.596 23.008 133.092 23.008C132.372 23.008 131.802 23.272 131.382 23.8C130.962 24.316 130.752 25.054 130.752 26.014C130.752 26.962 130.962 27.7 131.382 28.228C131.802 28.744 132.372 29.002 133.092 29.002C134.112 29.002 134.778 28.546 135.09 27.634H137.808C137.532 28.714 136.986 29.572 136.17 30.208C135.354 30.844 134.334 31.162 133.11 31.162C132.15 31.162 131.298 30.952 130.554 30.532C129.81 30.1 129.228 29.5 128.808 28.732C128.388 27.952 128.178 27.046 128.178 26.014ZM148.924 25.798C148.924 26.158 148.9 26.482 148.852 26.77H141.562C141.622 27.49 141.874 28.054 142.318 28.462C142.762 28.87 143.308 29.074 143.956 29.074C144.892 29.074 145.558 28.672 145.954 27.868H148.672C148.384 28.828 147.832 29.62 147.016 30.244C146.2 30.856 145.198 31.162 144.01 31.162C143.05 31.162 142.186 30.952 141.418 30.532C140.662 30.1 140.068 29.494 139.636 28.714C139.216 27.934 139.006 27.034 139.006 26.014C139.006 24.982 139.216 24.076 139.636 23.296C140.056 22.516 140.644 21.916 141.4 21.496C142.156 21.076 143.026 20.866 144.01 20.866C144.958 20.866 145.804 21.07 146.548 21.478C147.304 21.886 147.886 22.468 148.294 23.224C148.714 23.968 148.924 24.826 148.924 25.798ZM146.314 25.078C146.302 24.43 146.068 23.914 145.612 23.53C145.156 23.134 144.598 22.936 143.938 22.936C143.314 22.936 142.786 23.128 142.354 23.512C141.934 23.884 141.676 24.406 141.58 25.078H146.314Z" fill="#5CE1E6"/>
<path d="M12.5553 35.0284C15.0385 36.99 18.0476 38.1711 21.2021 38.4225C24.3566 38.6739 27.5148 37.9843 30.2773 36.4407C33.0399 34.8972 35.2827 32.5692 36.7221 29.751C38.1615 26.9328 38.733 23.7511 38.3641 20.6082C37.9953 17.4652 36.7027 14.5023 34.6499 12.0939C32.5971 9.6856 29.8762 7.94008 26.8314 7.07811C23.7866 6.21613 20.5545 6.27642 17.5439 7.25133C14.5333 8.22625 11.8794 10.072 9.91787 12.5552L16.1955 17.5142C17.1763 16.2726 18.5032 15.3497 20.0085 14.8622C21.5138 14.3748 23.1299 14.3446 24.6523 14.7756C26.1747 15.2066 27.5351 16.0794 28.5615 17.2835C29.5879 18.4877 30.2342 19.9692 30.4186 21.5406C30.6031 23.1121 30.3174 24.703 29.5976 26.1121C28.8779 27.5211 27.7565 28.6852 26.3753 29.4569C24.994 30.2287 23.4149 30.5735 21.8376 30.4478C20.2604 30.3221 18.7558 29.7315 17.5142 28.7508L12.5553 35.0284Z" fill="white"/>
<path d="M12.5553 35.0284C14.2041 36.3308 16.0933 37.2958 18.115 37.8681C20.1367 38.4404 22.2513 38.609 24.3381 38.364C26.4249 38.1191 28.4431 37.4656 30.2774 36.4407C32.1116 35.4159 33.726 34.0398 35.0285 32.391L28.7508 27.432C28.0996 28.2564 27.2924 28.9445 26.3753 29.4569C25.4581 29.9694 24.4491 30.2961 23.4056 30.4186C22.3622 30.541 21.3049 30.4568 20.2941 30.1706C19.2832 29.8844 18.3386 29.402 17.5142 28.7508L12.5553 35.0284Z" fill="#5CE1E6"/>
<circle cx="22.4732" cy="22.4732" r="5" transform="rotate(-141.694 22.4732 22.4732)" fill="#5CE1E6"/>
<path d="M18.5496 19.3739C18.1426 19.8891 17.8411 20.4795 17.6622 21.1113C17.4834 21.7431 17.4307 22.4039 17.5072 23.056C17.5838 23.7082 17.788 24.3388 18.1083 24.912C18.4286 25.4852 18.8586 25.9897 19.3738 26.3968C19.8891 26.8038 20.4794 27.1053 21.1112 27.2842C21.743 27.463 22.4038 27.5157 23.056 27.4391C23.7081 27.3626 24.3388 27.1584 24.912 26.8381C25.4852 26.5178 25.9897 26.0878 26.3967 25.5726L22.4732 22.4732L18.5496 19.3739Z" fill="white"/>
</svg>
